# xmcd
#
# Track frame offsets:
#	150
#	15118
#	27639
#	44670
#	57812
#	77942
#	92243
#	110824
#	125997
#	140391
#	158469
#	171097
#	184953
#	199518
#	213594
#	229923
#	246002
#	258702
#	274536
#	288885
#	304027
#
# Disc length: 4252 seconds
#
# Revision: 0
# Processed by: cddbd v1.5.2PL0 Copyright (c) Steve Scherf et al.
# Submitted via: EZCDAudioConverter 7.1.0.1
#
DISCID=31109a15
DTITLE=Nu Country Traxx Volume 246 US
DYEAR=2019
DGENRE=country
TTITLE0=Jason Aldean - We Back
TTITLE1=Kelsea Ballerini - Homecoming Queen
TTITLE2=George Strait - The Weight Of The Badge
TTITLE3=The Highwomen - Redesigning Women
TTITLE4=Billy Ray Cyrus and Johnny McGuire - Chevys And Fords
TTITLE5=Little Big Town - Over Drinking
TTITLE6=Craig Morgan - The Father, My Son And The Holy Ghost
TTITLE7=Lauren Alaina - Getting Good
TTITLE8=Ashley McBryde - One Night Standards
TTITLE9=Presley and Taylor - Where You Belong
TTITLE10=Aaron Pritchett - Good Thing
TTITLE11=Amy Jack - Shake And Bake
TTITLE12=George Canyon - Vinyl
TTITLE13=Sarah Lawton - Malibu
TTITLE14=Chris Henderson - Bad Memory
TTITLE15=The Ashley Sisters - Crush
TTITLE16=Lady Redneck - I'm A Lady That's Redneck Crazy
TTITLE17=Wes Mack ft. Maddie Storvold - Best Hangover
TTITLE18=Brea Lawrenson - The Radio
TTITLE19=Samara Yung - Too Cool
TTITLE20=Chris Labelle - Say Yeah
EXTD=
EXTT0=
EXTT1=
EXTT2=
EXTT3=
EXTT4=
EXTT5=
EXTT6=
EXTT7=
EXTT8=
EXTT9=
EXTT10=
EXTT11=
EXTT12=
EXTT13=
EXTT14=
EXTT15=
EXTT16=
EXTT17=
EXTT18=
EXTT19=
EXTT20=
PLAYORDER=
